<?xml version="1.0" standalone="no"?>
<!DOCTYPE svg PUBLIC "-//W3C//DTD SVG 20010904//EN"
 "http://www.w3.org/TR/2001/REC-SVG-20010904/DTD/svg10.dtd">
<svg version="1.0" xmlns="http://www.w3.org/2000/svg"
 width="225.000000pt" height="225.000000pt" viewBox="0 0 225.000000 225.000000"
 preserveAspectRatio="xMidYMid meet">
<metadata>
Created by potrace 1.11, written by Peter Selinger 2001-2013
</metadata>
<g transform="translate(0.000000,225.000000) scale(0.100000,-0.100000)"
fill="#000000" stroke="none">
<path d="M156 2238 c-25 -7 -57 -28 -87 -58 -37 -37 -49 -58 -59 -101 -8 -40
-10 -302 -8 -984 3 -885 4 -932 22 -965 26 -49 55 -79 101 -103 l40 -22 930
-3 c682 -2 944 0 984 8 43 10 64 22 101 60 38 37 50 58 60 101 8 40 10 302 8
984 l-3 930 -22 40 c-24 46 -54 75 -103 101 -33 18 -78 19 -980 21 -634 1
-958 -2 -984 -9z m1143 -334 c50 -6 61 -10 61 -25 0 -16 8 -19 43 -19 29 0 38
-3 28 -9 -10 -6 0 -8 27 -4 35 5 47 1 75 -20 40 -30 227 -212 227 -220 0 -4
11 -23 25 -43 17 -25 25 -50 25 -80 0 -24 6 -49 15 -58 8 -8 15 -24 15 -35 0
-15 6 -21 21 -21 21 0 22 -3 15 -61 -3 -34 -6 -90 -6 -125 0 -51 -3 -63 -17
-67 -10 -3 -3 -5 16 -6 l35 -1 -33 -29 c-23 -21 -51 -33 -98 -41 -42 -8 -74
-21 -90 -36 -14 -13 -30 -24 -34 -24 -5 0 -9 -30 -9 -66 0 -96 -7 -104 -88
-104 -40 0 -73 5 -80 12 -7 7 -12 40 -12 80 l0 68 -295 0 -294 0 -3 -77 -3
-78 -68 -3 c-89 -4 -97 3 -97 87 0 60 -3 69 -27 93 -48 44 -49 50 -52 169 -3
121 5 154 48 209 11 14 22 36 25 50 5 22 4 21 -9 -5 -15 -30 -15 -30 -10 20
l5 50 -13 -35 c-8 -21 -10 -42 -5 -52 11 -23 10 -28 -5 -22 -10 4 -14 26 -12
83 1 77 2 80 35 107 47 38 49 43 44 79 -4 24 -3 26 5 10 5 -11 12 -33 16 -49
5 -22 9 -26 15 -16 5 8 7 17 4 21 -2 4 0 10 6 14 5 3 10 11 10 16 0 6 -5 7
-11 3 -12 -7 -29 13 -29 35 0 11 4 9 16 -5 12 -15 15 -16 10 -2 -4 12 3 18 27
24 18 4 26 9 20 11 -36 13 10 60 47 50 11 -3 17 0 15 7 -4 12 87 86 108 86 7
0 21 10 32 23 17 19 20 20 23 5 5 -24 82 -26 82 -3 0 11 11 15 40 15 22 0 40
5 40 10 0 12 15 12 99 4z m-689 -549 c-9 -11 -10 -19 -3 -26 7 -7 12 -2 17 15
3 14 13 26 21 26 12 0 11 -6 -7 -30 -12 -16 -28 -30 -35 -30 -7 0 -16 -12 -19
-26 -5 -19 -9 -22 -15 -13 -4 8 -4 16 0 19 4 3 14 22 20 43 7 20 17 37 23 37
6 0 5 -6 -2 -15z m-43 -47 c-3 -8 -6 -5 -6 6 -1 11 2 17 5 13 3 -3 4 -12 1
-19z m40 -80 c-2 -13 -4 -3 -4 22 0 25 2 35 4 23 2 -13 2 -33 0 -45z m-3 -143
c6 -35 5 -34 -8 10 -8 28 -15 73 -14 100 l1 50 7 -60 c4 -33 10 -78 14 -100z
m-17 -27 c-3 -8 -6 -5 -6 6 -1 11 2 17 5 13 3 -3 4 -12 1 -19z m1320 16 c-3
-3 -12 -4 -19 -1 -8 3 -5 6 6 6 11 1 17 -2 13 -5z m-1489 -599 c59 -68 -4
-175 -103 -175 l-35 0 0 -54 c0 -57 -10 -68 -53 -58 -16 4 -17 18 -15 161 l3
156 55 5 c75 7 121 -4 148 -35z m197 34 c4 -5 31 -79 60 -164 53 -150 53 -153
32 -157 -38 -7 -54 2 -64 35 -8 31 -11 32 -70 35 l-61 3 -12 -36 c-10 -31 -15
-35 -47 -35 -29 0 -34 3 -28 18 3 9 26 74 50 144 57 166 58 168 100 168 18 0
37 -5 40 -11z m300 1 c22 -5 48 -19 58 -31 24 -30 22 -82 -6 -114 l-22 -27 33
-69 c19 -39 32 -72 31 -74 -5 -4 -39 -8 -60 -6 -9 1 -21 18 -29 42 -18 53 -46
89 -71 89 -17 0 -19 -7 -19 -64 0 -68 -8 -78 -52 -68 -16 4 -18 20 -18 156 0
105 4 156 12 164 14 14 87 15 143 2z m203 -69 l3 -74 46 69 c58 87 75 98 112
75 11 -7 4 -23 -38 -79 l-51 -70 50 -76 c53 -80 57 -92 38 -98 -35 -12 -60 7
-105 79 l-48 76 -3 -76 c-3 -79 -10 -91 -51 -80 -20 5 -21 11 -21 163 0 166 1
171 45 167 18 -2 20 -10 23 -76z m280 -89 l3 -163 -33 3 -33 3 -3 154 c-3 163
0 174 43 169 19 -3 20 -12 23 -166z m156 155 c9 -7 41 -57 71 -112 l54 -100 3
110 c3 110 3 110 28 110 l25 0 3 -162 2 -163 -39 0 c-21 0 -43 6 -48 13 -6 6
-34 59 -64 115 l-54 104 -5 -119 c-4 -86 -8 -118 -17 -117 -45 4 -43 -4 -43
163 0 118 3 161 13 164 23 10 53 7 71 -6z m481 -1 c28 -12 35 -21 35 -42 0
-23 -3 -25 -22 -19 -13 4 -46 10 -73 12 -45 4 -54 1 -77 -22 -34 -34 -44 -91
-24 -139 16 -38 46 -56 97 -56 27 0 29 2 29 39 0 37 -2 40 -32 43 -25 2 -34 8
-36 24 -3 19 3 22 45 26 92 8 93 7 93 -87 l0 -82 -39 -11 c-108 -33 -201 8
-231 101 -15 47 -6 111 20 154 38 64 138 91 215 59z"/>
<path d="M841 1743 c3 -20 -2 -27 -11 -13 -5 8 -12 11 -17 7 -4 -5 -1 -12 7
-17 17 -10 53 6 45 21 -7 11 -26 12 -24 2z"/>
<path d="M958 1733 c45 -2 119 -2 165 0 45 1 8 3 -83 3 -91 0 -128 -2 -82 -3z"/>
<path d="M1318 1733 c23 -2 61 -2 85 0 23 2 4 4 -43 4 -47 0 -66 -2 -42 -4z"/>
<path d="M1490 1716 c0 -2 7 -7 16 -10 8 -3 12 -2 9 4 -6 10 -25 14 -25 6z"/>
<path d="M908 1673 c7 -3 16 -2 19 1 4 3 -2 6 -13 5 -11 0 -14 -3 -6 -6z"/>
<path d="M968 1673 c6 -2 18 -2 25 0 6 3 1 5 -13 5 -14 0 -19 -2 -12 -5z"/>
<path d="M835 1619 c-4 -6 -4 -13 -1 -16 3 -4 6 -1 6 6 0 7 5 9 12 5 7 -4 8
-3 4 4 -9 15 -13 15 -21 1z"/>
<path d="M726 1591 c-5 -8 -2 -20 8 -29 17 -17 19 -9 7 22 -6 15 -10 16 -15 7z"/>
<path d="M826 1543 c-6 -14 -5 -15 5 -6 7 7 10 15 7 18 -3 3 -9 -2 -12 -12z"/>
<path d="M715 1530 c-3 -5 -1 -10 4 -10 6 0 11 5 11 10 0 6 -2 10 -4 10 -3 0
-8 -4 -11 -10z"/>
<path d="M656 1514 c-9 -23 -7 -36 3 -30 12 8 21 46 11 46 -4 0 -11 -7 -14
-16z"/>
<path d="M691 1514 c0 -11 3 -14 6 -6 3 7 2 16 -1 19 -3 4 -6 -2 -5 -13z"/>
<path d="M706 1488 c-18 -25 -20 -38 -8 -38 4 0 13 14 19 30 13 36 10 38 -11
8z"/>
<path d="M280 405 c0 -52 1 -55 25 -55 37 0 68 35 60 68 -8 32 -21 42 -57 42
-27 0 -28 -2 -28 -55z"/>
<path d="M547 377 c-9 -30 -17 -57 -17 -60 0 -4 18 -6 40 -5 22 1 40 4 40 6 0
15 -35 112 -40 112 -3 0 -14 -24 -23 -53z"/>
<path d="M830 415 c0 -36 3 -45 18 -45 57 1 83 30 62 70 -8 14 -21 20 -45 20
-35 0 -35 0 -35 -45z"/>
</g>
</svg>
